<svg xmlns="http://www.w3.org/2000/svg" viewBox="0 0 64 64" role="img" aria-label="Kimberley Direct Publishing open book">
  <!-- Left cover -->
  <path d="M32 15 C24 10 15 10 8 13 L8 49 C15 46 24 46 32 51 Z" fill="#140545"/>
  <!-- Right cover -->
  <path d="M32 15 C40 10 49 10 56 13 L56 49 C49 46 40 46 32 51 Z" fill="#1d0a5e"/>
  <!-- Left pages (yellow) -->
  <path d="M32 19 C25 15 18 15 12 17 L12 46 C18 44 25 44 32 47 Z" fill="#FFB210"/>
  <!-- Right pages (teal) -->
  <path d="M32 19 C39 15 46 15 52 17 L52 46 C46 44 39 44 32 47 Z" fill="#3F7C84"/>
  <!-- Page lines left -->
  <g stroke="#140545" stroke-width="1.4" stroke-linecap="round" opacity="0.55">
    <line x1="17" y1="23" x2="28" y2="25"/>
    <line x1="17" y1="29" x2="28" y2="31"/>
    <line x1="17" y1="35" x2="28" y2="37"/>
  </g>
  <!-- Page lines right -->
  <g stroke="#ffffff" stroke-width="1.4" stroke-linecap="round" opacity="0.7">
    <line x1="47" y1="23" x2="36" y2="25"/>
    <line x1="47" y1="29" x2="36" y2="31"/>
    <line x1="47" y1="35" x2="36" y2="37"/>
  </g>
  <!-- Center spine -->
  <path d="M32 15 L32 51" stroke="#0d0d0d" stroke-width="2" stroke-linecap="round" opacity="0.35"/>
</svg>
